<svg width="24" height="24" viewBox="0 0 24 24" fill="none" xmlns="http://www.w3.org/2000/svg">
<path d="M13 9C13 8.73478 12.8946 8.48043 12.7071 8.29289C12.5196 8.10536 12.2652 8 12 8H3C2.73478 8 2.48043 8.10536 2.29289 8.29289C2.10536 8.48043 2 8.73478 2 9V22H13V9ZM6 20H4V18H6V20ZM6 16H4V14H6V16ZM6 12H4V10H6V12ZM11 20H8V18H11V20ZM11 16H8V14H11V16ZM11 12H8V10H11V12ZM14.5 6H6V3C6 2.73478 6.10536 2.48043 6.29289 2.29289C6.48043 2.10536 6.73478 2 7 2H17C17.2652 2 17.5196 2.10536 17.7071 2.29289C17.8946 2.48043 18 2.73478 18 3V10H15V6.5C15 6.36739 14.9473 6.24021 14.8536 6.14645C14.7598 6.05268 14.6326 6 14.5 6ZM22 13V22H19.5V18H17.5V22H15V13C15 12.7348 15.1054 12.4804 15.2929 12.2929C15.4804 12.1054 15.7348 12 16 12H21C21.2652 12 21.5196 12.1054 21.7071 12.2929C21.8946 12.4804 22 12.7348 22 13Z" fill="white"/>
</svg>
