<svg width="20" height="22" viewBox="0 0 20 22" fill="none" xmlns="http://www.w3.org/2000/svg">
<path d="M17.25 0H2.75C2.15326 0 1.58097 0.237053 1.15901 0.65901C0.737053 1.08097 0.5 1.65326 0.5 2.25V17.15C0.5 17.7467 0.737053 18.319 1.15901 18.741C1.58097 19.1629 2.15326 19.4 2.75 19.4H15.05L14.45 17.35L15.85 18.7L17.15 19.9L19.5 22V2.25C19.5 1.65326 19.2629 1.08097 18.841 0.65901C18.419 0.237053 17.8467 0 17.25 0ZM13.1 14.35L12.35 13.45C13.15 13.2683 13.8591 12.8074 14.35 12.15C13.9545 12.4052 13.536 12.6228 13.1 12.8C12.5876 13.0276 12.0508 13.1953 11.5 13.3C10.5749 13.4758 9.62506 13.4758 8.7 13.3C8.15373 13.178 7.61856 13.0107 7.1 12.8L6.3 12.45H6.2C6.2 12.4 6.2 12.4 6.15 12.4L5.85 12.2C6.31581 12.8381 6.9865 13.297 7.75 13.5L7.05 14.4C6.39951 14.4182 5.75441 14.2775 5.17063 13.9899C4.58686 13.7024 4.08205 13.2768 3.7 12.75C3.73451 10.5221 4.28201 8.33206 5.3 6.35C6.16534 5.64655 7.23564 5.243 8.35 5.2L8.45 5.3C7.409 5.57858 6.43807 6.07256 5.6 6.75L6.25 6.45C7.01098 6.05353 7.84443 5.8154 8.7 5.75H8.9C9.6147 5.675 10.3353 5.675 11.05 5.75C12.2125 5.85956 13.3379 6.21764 14.35 6.8C13.5682 6.13401 12.6448 5.65519 11.65 5.4L11.8 5.25C12.9144 5.293 13.9847 5.69655 14.85 6.4C15.8391 8.39045 16.3688 10.5776 16.4 12.8C16.4 12.8 15.5 14.3 13.1 14.35Z" fill="white"/>
</svg>
