<svg width="24" height="24" viewBox="0 0 24 24" fill="none" xmlns="http://www.w3.org/2000/svg">
<g clip-path="url(#clip0_246_129)">
<path d="M10 0H0.909091C0.668081 0.000313453 0.437033 0.0961932 0.266613 0.266613C0.0961932 0.437033 0.000313453 0.668081 0 0.909091V10C0.000313453 10.241 0.0961932 10.4721 0.266613 10.6425C0.437033 10.8129 0.668081 10.9088 0.909091 10.9091H10C10.241 10.9088 10.4721 10.8129 10.6425 10.6425C10.8129 10.4721 10.9088 10.241 10.9091 10V0.909091C10.9088 0.668081 10.8129 0.437033 10.6425 0.266613C10.4721 0.0961932 10.241 0.000313453 10 0ZM6.13592 8.18137C6.13592 8.30193 6.08803 8.41754 6.00279 8.50279C5.91754 8.58803 5.80193 8.63592 5.68137 8.63592C5.56082 8.63592 5.44521 8.58803 5.35996 8.50279C5.27472 8.41754 5.22683 8.30193 5.22683 8.18137V3.80416L4.57076 4.24139C4.52109 4.27456 4.46538 4.29762 4.4068 4.30925C4.34822 4.32088 4.28792 4.32085 4.22935 4.30916C4.17078 4.29748 4.11509 4.27436 4.06545 4.24114C4.01582 4.20792 3.97323 4.16524 3.9401 4.11555C3.90697 4.06585 3.88396 4.01012 3.87238 3.95153C3.8608 3.89293 3.86088 3.83264 3.87262 3.77408C3.88436 3.71552 3.90753 3.65985 3.94079 3.61024C3.97406 3.56064 4.01677 3.51808 4.06649 3.485L5.42924 2.57635C5.4977 2.5307 5.57725 2.50449 5.65943 2.50051C5.74161 2.49654 5.82333 2.51494 5.89587 2.55376C5.96841 2.59258 6.02905 2.65037 6.07133 2.72095C6.11361 2.79153 6.13593 2.87227 6.13592 2.95455V8.18137Z" fill="white"/>
<path d="M23.0909 0H14C13.759 0.000275647 13.5279 0.0961431 13.3575 0.266571C13.187 0.436999 13.0912 0.66807 13.0909 0.909091V10C13.0912 10.241 13.187 10.4721 13.3575 10.6425C13.5279 10.8129 13.759 10.9088 14 10.9091H23.0909C23.3319 10.9088 23.563 10.8129 23.7334 10.6425C23.9038 10.4721 23.9997 10.241 24 10V0.909091C23.9997 0.66807 23.9038 0.436999 23.7334 0.266571C23.563 0.0961431 23.3319 0.000275647 23.0909 0ZM19.9091 7.72694C20.0296 7.72694 20.1452 7.77483 20.2305 7.86007C20.3157 7.94532 20.3636 8.06093 20.3636 8.18149C20.3636 8.30204 20.3157 8.41765 20.2305 8.5029C20.1452 8.58814 20.0296 8.63603 19.9091 8.63603H17.1998C17.1938 8.63628 17.1878 8.63639 17.1817 8.63639C17.0965 8.63635 17.0131 8.61238 16.9408 8.5672C16.8686 8.52202 16.8105 8.45745 16.7732 8.38086C16.7359 8.30427 16.7208 8.21873 16.7298 8.134C16.7387 8.04927 16.7713 7.96876 16.8237 7.90164L19.3051 4.59051C19.3745 4.48491 19.4211 4.366 19.442 4.24138C19.4629 4.11675 19.4575 3.98914 19.4264 3.86669C19.3952 3.74424 19.3388 3.62963 19.2608 3.53018C19.1829 3.43072 19.0851 3.34861 18.9736 3.28907C18.8621 3.22954 18.7395 3.19388 18.6135 3.18439C18.4875 3.1749 18.3609 3.19177 18.2418 3.23393C18.1227 3.27609 18.0136 3.34262 17.9216 3.42927C17.8297 3.51592 17.7568 3.62079 17.7076 3.73718C17.6606 3.84822 17.5715 3.93605 17.4598 3.98135C17.348 4.02666 17.2229 4.02573 17.1119 3.97877C17.0008 3.93181 16.913 3.84267 16.8677 3.73095C16.8224 3.61924 16.8233 3.4941 16.8703 3.38307C16.969 3.14948 17.1155 2.93914 17.3004 2.76554C17.4853 2.59194 17.7044 2.45893 17.9437 2.37505C18.1831 2.29117 18.4373 2.25827 18.6901 2.27848C18.9429 2.29869 19.1886 2.37155 19.4116 2.49238C19.6346 2.61321 19.8298 2.77934 19.9847 2.9801C20.1397 3.18087 20.2509 3.41182 20.3113 3.65812C20.3717 3.90443 20.3799 4.16064 20.3354 4.4103C20.2909 4.65996 20.1946 4.89755 20.0528 5.10781C20.0487 5.11394 20.0444 5.11999 20.0399 5.1259L18.0907 7.72694L19.9091 7.72694Z" fill="white"/>
<path d="M10 13.0908H0.909091C0.66807 13.0911 0.436999 13.187 0.266571 13.3574C0.0961431 13.5278 0.000275647 13.7589 0 13.9999V23.0908C0.000275647 23.3318 0.0961431 23.5629 0.266571 23.7333C0.436999 23.9038 0.66807 23.9996 0.909091 23.9999H10C10.241 23.9996 10.4721 23.9038 10.6425 23.7333C10.8129 23.5629 10.9088 23.3318 10.9091 23.0908V13.9999C10.9088 13.7589 10.8129 13.5278 10.6425 13.3574C10.4721 13.187 10.241 13.0911 10 13.0908ZM6.67369 21.3554C6.48377 21.5453 6.25831 21.696 6.01016 21.7988C5.76202 21.9016 5.49606 21.9545 5.22747 21.9545C4.95887 21.9545 4.69291 21.9016 4.44477 21.7988C4.19663 21.696 3.97116 21.5453 3.78124 21.3554C3.69599 21.2701 3.64811 21.1545 3.64811 21.034C3.64812 20.9134 3.69602 20.7978 3.78127 20.7126C3.86651 20.6273 3.98213 20.5794 4.10269 20.5794C4.22325 20.5794 4.33886 20.6273 4.4241 20.7126C4.55623 20.8447 4.7189 20.9422 4.8977 20.9964C5.0765 21.0506 5.2659 21.0599 5.44915 21.0234C5.63239 20.9869 5.80381 20.9058 5.94823 20.7873C6.09265 20.6688 6.20561 20.5165 6.2771 20.3438C6.3486 20.1712 6.37642 19.9836 6.35811 19.7977C6.3398 19.6118 6.27591 19.4332 6.17212 19.2779C6.06832 19.1225 5.92782 18.9952 5.76305 18.9071C5.59828 18.819 5.41433 18.7729 5.22749 18.7729C5.14435 18.7729 5.0628 18.7501 4.99171 18.707C4.92063 18.6638 4.86273 18.602 4.82433 18.5283C4.78592 18.4546 4.76848 18.3717 4.7739 18.2887C4.77932 18.2058 4.8074 18.1259 4.85507 18.0578L5.94505 16.4999H4.09091C3.97036 16.4999 3.85474 16.452 3.7695 16.3668C3.68425 16.2815 3.63636 16.1659 3.63636 16.0454C3.63636 15.9248 3.68425 15.8092 3.7695 15.724C3.85474 15.6387 3.97036 15.5908 4.09091 15.5908H6.81785C6.90099 15.5908 6.98254 15.6136 7.05363 15.6567C7.12472 15.6999 7.18261 15.7617 7.22101 15.8354C7.25942 15.9091 7.27686 15.992 7.27144 16.075C7.26602 16.1579 7.23795 16.2378 7.19027 16.306L5.9962 18.0126C6.3091 18.1396 6.58569 18.3422 6.80131 18.6021C7.01692 18.862 7.16487 19.1712 7.23195 19.5022C7.29903 19.8332 7.28316 20.1756 7.18575 20.499C7.08834 20.8223 6.91243 21.1165 6.67369 21.3554Z" fill="white"/>
<path d="M23.0909 13.0908H14C13.759 13.0911 13.5279 13.187 13.3575 13.3574C13.187 13.5278 13.0912 13.7589 13.0909 13.9999V23.0908C13.0912 23.3318 13.187 23.5629 13.3575 23.7333C13.5279 23.9038 13.759 23.9996 14 23.9999H23.0909C23.3319 23.9996 23.563 23.9038 23.7334 23.7333C23.9038 23.5629 23.9997 23.3318 24 23.0908V13.9999C23.9997 13.7589 23.9038 13.5278 23.7334 13.3574C23.563 13.187 23.3319 13.0911 23.0909 13.0908ZM20.1363 21.2726C20.1363 21.3932 20.0884 21.5088 20.0032 21.5941C19.918 21.6793 19.8023 21.7272 19.6818 21.7272C19.5612 21.7272 19.4456 21.6793 19.3604 21.5941C19.2751 21.5088 19.2272 21.3932 19.2272 21.2726V19.909H16.9545C16.8818 19.909 16.8102 19.8916 16.7456 19.8581C16.6811 19.8247 16.6255 19.7763 16.5835 19.717C16.5415 19.6576 16.5143 19.5891 16.5043 19.5171C16.4943 19.4451 16.5017 19.3717 16.5259 19.3032L17.8894 15.4395C17.9295 15.3259 18.0132 15.2328 18.1219 15.1808C18.2307 15.1287 18.3556 15.1221 18.4693 15.1622C18.583 15.2023 18.6761 15.2859 18.7281 15.3947C18.7801 15.5035 18.7868 15.6284 18.7467 15.7421L17.5969 18.9999H19.2272V17.6363C19.2272 17.5157 19.2751 17.4001 19.3604 17.3149C19.4456 17.2296 19.5612 17.1817 19.6818 17.1817C19.8023 17.1817 19.918 17.2296 20.0032 17.3149C20.0884 17.4001 20.1363 17.5157 20.1363 17.6363V21.2726Z" fill="white"/>
</g>
<defs>
<clipPath id="clip0_246_129">
<rect width="24" height="24" fill="white"/>
</clipPath>
</defs>
</svg>
