<svg width="24" height="24" viewBox="0 0 24 24" fill="none" xmlns="http://www.w3.org/2000/svg">
<path d="M19.6273 16.7009C20.8585 17.4125 21.5618 18.6802 21.4736 19.948C21.4146 20.7209 21.3855 20.7526 20.4478 20.8763C19.8617 20.9693 16.169 21 12.3601 21C8.05224 21 3.54 20.907 3.21742 20.8139C1.92808 20.4735 2.63136 17.9993 4.33142 16.8246C5.64984 15.928 8.34574 14.5672 9.07903 14.4118C10.0758 14.1951 10.193 13.5459 9.07903 11.4428C8.81553 10.9787 8.52203 9.55652 8.49296 8.07203C8.46389 5.65923 8.90368 4.02034 10.8963 3.21674C11.307 3.06235 11.7168 3 12.0975 3C13.4159 3 14.6471 3.77293 15.1451 4.91797C15.8774 6.43314 15.5848 10.4848 14.8225 11.9386C13.9429 13.5775 14.0311 14.104 14.9988 14.3821C15.6439 14.5682 17.6365 15.5578 19.6292 16.7019L19.6273 16.7009ZM3.68628 15.7736C3.21742 16.114 2.77764 16.5465 2.426 16.98C1.312 16.98 0.462442 16.9493 0.374298 16.9176C-0.358051 16.7316 0.0517266 15.3094 1.01944 14.6909C1.75179 14.1961 3.24649 13.4231 3.65721 13.3301C4.18514 13.2064 4.30235 12.866 3.65721 11.6912C3.51093 11.4438 3.33464 10.6392 3.33464 9.80493C3.30557 8.44414 3.56906 7.51583 4.68306 7.11403C5.62077 6.74291 6.67569 7.20706 7.0564 8.04234C7.4371 8.90829 7.23268 11.135 6.82197 11.9396C6.35312 12.8986 6.44126 13.146 6.96825 13.3004C7.08546 13.3311 7.31989 13.4548 7.64246 13.6102C6.35312 14.1674 4.59491 15.1877 3.68628 15.7756V15.7736ZM22.9683 14.5979C23.6716 14.9997 24.0523 15.6806 23.9942 16.3921C23.9651 16.8256 23.9651 16.8563 23.4372 16.9176C23.2909 16.9483 22.6167 16.98 21.7371 16.98C21.3564 16.4545 20.8285 15.9596 20.1843 15.6192C18.9831 14.877 17.5175 14.0724 16.4335 13.5775C16.727 13.4538 16.9905 13.3608 17.1077 13.3301C17.6647 13.2064 17.7528 12.866 17.1077 11.6912C16.9905 11.4438 16.7851 10.6392 16.7851 9.80493C16.756 8.44414 16.9905 7.51583 18.1035 7.11403C19.0703 6.74291 20.1252 7.20706 20.4769 8.04234C20.8576 8.90829 20.7113 11.135 20.3006 11.9396C19.8317 12.8986 19.8898 13.146 20.3887 13.3004C20.7403 13.4241 21.8543 13.9813 22.9674 14.5998L22.9683 14.5979Z" fill="white"/>
</svg>
