<svg width="20" height="23" viewBox="0 0 20 23" fill="none" xmlns="http://www.w3.org/2000/svg">
<path fill-rule="evenodd" clip-rule="evenodd" d="M3.5 10V7C3.5 5.27609 4.18482 3.62279 5.40381 2.40381C6.62279 1.18482 8.2761 0.5 10 0.5C11.7239 0.5 13.3772 1.18482 14.5962 2.40381C15.8152 3.62279 16.5 5.27609 16.5 7V10H17C18.6569 10 20 11.3431 20 13V20C20 21.6569 18.6569 23 17 23H3C1.34315 23 0 21.6569 0 20V13C0 11.3431 1.34315 10 3 10H3.5ZM7.52513 4.52513C8.1815 3.86875 9.0717 3.5 10 3.5C10.9283 3.5 11.8185 3.86875 12.4749 4.52513C13.1313 5.1815 13.5 6.07174 13.5 7V10H6.5V7C6.5 6.07174 6.86875 5.1815 7.52513 4.52513Z" fill="white"/>
</svg>
