<svg width="357" height="75" viewBox="0 0 357 75" fill="none" xmlns="http://www.w3.org/2000/svg">
<g filter="url(#filter0_b_83_318)">
<path d="M41.808 6.976C49.296 6.976 54.96 9.952 58.8 15.904C62.64 21.856 64.56 29.344 64.56 38.368C64.56 47.392 62.32 55.616 57.84 63.04C53.424 70.4 48.304 74.08 42.48 74.08C38.384 74.08 35.376 71.776 33.456 67.168C31.536 62.56 30.288 56 29.712 47.488C27.024 51.264 23.952 55.552 20.496 60.352C13.84 69.568 9.168 74.176 6.48 74.176C5.456 74.176 4.272 73.344 2.928 71.68C1.584 70.016 0.912 67.936 0.912 65.44C0.912 62.88 1.776 54.976 3.504 41.728C5.232 28.416 6.096 18.048 6.096 10.624C6.096 8.25599 6.8 7.07199 8.208 7.07199C9.616 7.07199 11.248 7.904 13.104 9.568C15.024 11.232 15.984 12.768 15.984 14.176C15.984 15.52 14.896 22.272 12.72 34.432C10.608 46.592 9.296 56.128 8.784 63.04C12.688 56.448 17.072 50.368 21.936 44.8C26.864 39.168 30.384 36.352 32.496 36.352C34.672 36.352 36.176 41.152 37.008 50.752C37.328 54.336 37.936 57.632 38.832 60.64C39.792 63.648 41.072 65.152 42.672 65.152C46.256 65.152 49.36 62.272 51.984 56.512C54.672 50.688 56.016 44.256 56.016 37.216C56.016 29.408 54.288 23.392 50.832 19.168C49.04 16.928 47.056 15.808 44.88 15.808C42.768 15.808 40.944 15.072 39.408 13.6C37.936 12.128 37.2 10.848 37.2 9.75999C37.2 7.904 38.736 6.976 41.808 6.976ZM99.1418 43.264C99.1418 41.088 98.7898 39.04 98.0858 37.12C97.3818 35.136 96.3578 33.696 95.0138 32.8C90.5978 34.016 86.7898 37.44 83.5898 43.072C80.4538 48.64 78.8858 53.888 78.8858 58.816C78.8858 63.744 80.1018 66.816 82.5338 68.032C87.1418 67.136 91.0458 64 94.2458 58.624C97.5098 53.184 99.1418 48.064 99.1418 43.264ZM73.8938 44.128C76.1338 39.136 79.0458 35.04 82.6298 31.84C86.2778 28.576 89.9898 26.944 93.7658 26.944C97.6058 26.944 100.806 28.576 103.366 31.84C105.926 35.04 107.206 38.976 107.206 43.648C107.206 48.256 106.086 52.992 103.846 57.856C101.606 62.656 98.5018 66.656 94.5338 69.856C90.6298 72.992 86.4698 74.56 82.0538 74.56C78.7898 74.56 76.0698 73.056 73.8938 70.048C71.7178 67.04 70.6298 63.232 70.6298 58.624C70.6298 53.952 71.7178 49.12 73.8938 44.128ZM117.49 38.656L117.202 31.456C117.202 28.448 117.906 26.944 119.314 26.944C120.53 26.944 121.682 27.744 122.77 29.344C123.922 30.88 124.498 32.736 124.498 34.912C124.498 37.024 124.434 38.624 124.306 39.712C129.874 31.264 135.154 27.04 140.146 27.04C143.282 27.04 144.85 27.808 144.85 29.344C144.85 30.112 144.498 30.816 143.794 31.456C143.09 32.096 141.97 32.832 140.434 33.664C137.042 35.136 134.162 37.408 131.794 40.48C129.49 43.488 127.602 46.912 126.13 50.752C124.658 54.592 123.474 57.824 122.578 60.448C121.746 63.072 121.106 65.12 120.658 66.592C120.21 68.064 119.698 69.504 119.122 70.912C118.098 73.472 116.914 74.752 115.57 74.752C114.482 74.752 113.586 74.144 112.882 72.928C112.242 71.648 111.922 70.432 111.922 69.28C111.922 68.064 112.466 65.696 113.554 62.176C116.178 54.112 117.49 46.272 117.49 38.656ZM184.023 32.128C184.023 32.704 181.175 35.712 175.479 41.152C173.367 43.2 171.415 45.632 169.623 48.448C167.895 51.2 167.031 53.728 167.031 56.032C167.031 58.336 167.703 60.48 169.047 62.464C170.455 64.384 171.959 65.856 173.559 66.88C175.223 67.84 176.727 68.8 178.071 69.76C179.479 70.72 180.183 71.52 180.183 72.16C180.183 73.76 178.903 74.56 176.343 74.56C173.847 74.56 170.839 73.152 167.319 70.336C163.863 67.456 161.719 64.256 160.887 60.736C160.567 60.096 160.311 59.488 160.119 58.912C155.767 64.8 152.599 68.896 150.615 71.2C148.695 73.44 147.255 74.56 146.295 74.56C145.335 74.56 144.279 73.824 143.127 72.352C141.975 70.816 141.399 69.568 141.399 68.608C141.399 67.584 142.423 63.456 144.471 56.224C146.583 48.928 148.663 40.192 150.711 30.016C152.823 19.84 153.879 10.752 153.879 2.752C153.879 1.728 154.007 1.024 154.263 0.639997C154.583 0.255999 155.223 0.0639992 156.183 0.0639992C157.143 0.0639992 158.327 1.024 159.735 2.944C161.143 4.8 161.847 6.62399 161.847 8.41599C161.847 14.112 160.695 22.08 158.391 32.32C156.087 42.56 153.335 52.288 150.135 61.504C157.367 51.2 163.607 42.88 168.855 36.544C174.167 30.144 177.431 26.944 178.647 26.944C179.927 26.944 181.143 27.552 182.295 28.768C183.447 29.984 184.023 31.104 184.023 32.128ZM229.503 6.976C236.991 6.976 242.655 9.952 246.495 15.904C250.335 21.856 252.255 29.344 252.255 38.368C252.255 47.392 250.015 55.616 245.535 63.04C241.119 70.4 235.999 74.08 230.175 74.08C226.079 74.08 223.071 71.776 221.151 67.168C219.231 62.56 217.983 56 217.407 47.488C214.719 51.264 211.647 55.552 208.191 60.352C201.535 69.568 196.863 74.176 194.175 74.176C193.151 74.176 191.967 73.344 190.623 71.68C189.279 70.016 188.607 67.936 188.607 65.44C188.607 62.88 189.471 54.976 191.199 41.728C192.927 28.416 193.791 18.048 193.791 10.624C193.791 8.25599 194.495 7.07199 195.903 7.07199C197.311 7.07199 198.943 7.904 200.799 9.568C202.719 11.232 203.679 12.768 203.679 14.176C203.679 15.52 202.591 22.272 200.415 34.432C198.303 46.592 196.991 56.128 196.479 63.04C200.383 56.448 204.767 50.368 209.631 44.8C214.559 39.168 218.079 36.352 220.191 36.352C222.367 36.352 223.871 41.152 224.703 50.752C225.023 54.336 225.631 57.632 226.527 60.64C227.487 63.648 228.767 65.152 230.367 65.152C233.951 65.152 237.055 62.272 239.679 56.512C242.367 50.688 243.711 44.256 243.711 37.216C243.711 29.408 241.983 23.392 238.527 19.168C236.735 16.928 234.751 15.808 232.575 15.808C230.463 15.808 228.639 15.072 227.103 13.6C225.631 12.128 224.895 10.848 224.895 9.75999C224.895 7.904 226.431 6.976 229.503 6.976ZM270.133 13.312C270.133 12.032 270.645 10.816 271.669 9.664C272.693 8.512 273.717 7.936 274.741 7.936C275.829 7.936 277.109 9.248 278.581 11.872C280.053 14.432 280.789 16.576 280.789 18.304C280.789 18.944 280.501 19.52 279.925 20.032C279.349 20.544 278.741 20.8 278.101 20.8C276.565 20.8 274.837 19.872 272.917 18.016C271.061 16.16 270.133 14.592 270.133 13.312ZM269.653 26.944C270.869 26.944 272.021 27.68 273.109 29.152C274.197 30.624 274.741 32.064 274.741 33.472C274.741 34.88 273.813 39.104 271.957 46.144C270.101 53.12 267.765 60.96 264.949 69.664C263.861 72.864 262.485 74.464 260.821 74.464C259.925 74.464 259.157 74.112 258.517 73.408C257.877 72.64 257.557 71.808 257.557 70.912C257.557 69.952 257.781 68.48 258.229 66.496C258.741 64.448 259.445 61.76 260.341 58.432C261.301 55.04 262.037 52.288 262.549 50.176C263.125 48.064 263.701 45.696 264.277 43.072C264.853 40.384 265.301 38.24 265.621 36.64C266.005 34.976 266.421 33.312 266.869 31.648C267.765 28.512 268.693 26.944 269.653 26.944ZM306.256 26.944C308.432 26.944 310.48 28.16 312.4 30.592C314.32 32.96 315.28 35.04 315.28 36.832C315.28 37.92 314.768 38.464 313.744 38.464C313.04 38.464 311.952 37.92 310.48 36.832C309.008 35.68 307.504 35.104 305.968 35.104C304.432 35.104 302 36 298.672 37.792C295.408 39.584 293.776 41.472 293.776 43.456C293.776 44.928 296.72 47.456 302.608 51.04C304.848 52.448 306.864 54.272 308.656 56.512C310.512 58.688 311.44 61.056 311.44 63.616C311.44 66.112 309.68 68.576 306.16 71.008C302.704 73.376 298.64 74.56 293.968 74.56C289.36 74.56 285.264 73.44 281.68 71.2C278.16 68.96 276.4 66.848 276.4 64.864C276.4 64.032 276.592 63.392 276.976 62.944C277.424 62.432 277.968 62.176 278.608 62.176C279.248 62.176 280.144 62.592 281.296 63.424C284.752 65.92 288.336 67.168 292.048 67.168C295.824 67.168 298.544 66.752 300.208 65.92C301.872 65.024 302.704 63.872 302.704 62.464C302.704 60.992 301.776 59.456 299.92 57.856C298.064 56.192 296.016 54.72 293.776 53.44C291.6 52.16 289.584 50.592 287.728 48.736C285.872 46.88 284.944 44.992 284.944 43.072C284.944 39.68 287.6 36.16 292.912 32.512C298.288 28.8 302.736 26.944 306.256 26.944ZM356.059 42.88C356.059 46.272 354.203 49.056 350.491 51.232C346.843 53.344 342.683 54.4 338.011 54.4C333.403 54.4 329.211 53.888 325.435 52.864C324.539 55.68 324.091 58.208 324.091 60.448C324.091 62.624 324.763 64.32 326.107 65.536C327.515 66.752 329.787 67.36 332.923 67.36C336.123 67.36 339.387 66.816 342.715 65.728C346.107 64.576 347.963 64 348.283 64C349.947 64 350.779 64.64 350.779 65.92C350.779 67.648 348.827 69.536 344.923 71.584C341.019 73.568 337.211 74.56 333.499 74.56C328.507 74.56 324.443 73.088 321.307 70.144C318.171 67.136 316.603 63.36 316.603 58.816C316.603 54.272 317.819 49.536 320.251 44.608C322.683 39.616 325.819 35.424 329.659 32.032C333.499 28.64 337.307 26.944 341.083 26.944C344.859 26.944 348.283 28.736 351.355 32.32C354.491 35.904 356.059 39.424 356.059 42.88ZM341.563 34.528C339.195 34.528 336.731 35.776 334.171 38.272C331.611 40.704 329.435 43.744 327.643 47.392C330.203 47.968 333.115 48.256 336.379 48.256C339.643 48.256 342.491 47.744 344.923 46.72C347.355 45.632 348.571 44.224 348.571 42.496C348.571 40.768 347.771 39.008 346.171 37.216C344.635 35.424 343.099 34.528 341.563 34.528Z" fill="white"/>
</g>
<defs>
<filter id="filter0_b_83_318" x="-56.0879" y="-56.936" width="469.146" height="188.688" filterUnits="userSpaceOnUse" color-interpolation-filters="sRGB">
<feFlood flood-opacity="0" result="BackgroundImageFix"/>
<feGaussianBlur in="BackgroundImageFix" stdDeviation="28.5"/>
<feComposite in2="SourceAlpha" operator="in" result="effect1_backgroundBlur_83_318"/>
<feBlend mode="normal" in="SourceGraphic" in2="effect1_backgroundBlur_83_318" result="shape"/>
</filter>
</defs>
</svg>
